<?xml version="1.0" encoding="UTF-8" standalone="no"?>
<!-- Created with Inkscape (http://www.inkscape.org/) -->

<svg
   width="800"
   height="600"
   viewBox="0 0 211.66666 158.75"
   version="1.1"
   id="svg5"
   inkscape:version="1.1 (c68e22c387, 2021-05-23)"
   sodipodi:docname="idea3.svg"
   xmlns:inkscape="http://www.inkscape.org/namespaces/inkscape"
   xmlns:sodipodi="http://sodipodi.sourceforge.net/DTD/sodipodi-0.dtd"
   xmlns="http://www.w3.org/2000/svg"
   xmlns:svg="http://www.w3.org/2000/svg">
  <sodipodi:namedview
     id="namedview7"
     pagecolor="#ffffff"
     bordercolor="#666666"
     borderopacity="1.0"
     inkscape:pageshadow="2"
     inkscape:pageopacity="0.0"
     inkscape:pagecheckerboard="0"
     inkscape:document-units="px"
     showgrid="false"
     units="px"
     inkscape:snap-bbox="true"
     inkscape:bbox-paths="true"
     inkscape:snap-bbox-edge-midpoints="true"
     inkscape:bbox-nodes="true"
     inkscape:snap-bbox-midpoints="true"
     inkscape:object-paths="true"
     inkscape:snap-intersection-paths="true"
     inkscape:snap-smooth-nodes="true"
     inkscape:snap-midpoints="true"
     inkscape:snap-object-midpoints="true"
     inkscape:snap-text-baseline="true"
     inkscape:snap-center="true"
     inkscape:snap-page="true"
     inkscape:zoom="1.0482005"
     inkscape:cx="320.07236"
     inkscape:cy="331.52055"
     inkscape:window-width="1920"
     inkscape:window-height="1017"
     inkscape:window-x="-8"
     inkscape:window-y="-8"
     inkscape:window-maximized="1"
     inkscape:current-layer="layer1" />
  <defs
     id="defs2" />
  <g
     inkscape:label="레이어 1"
     inkscape:groupmode="layer"
     id="layer1">
    <rect
       style="fill:none;stroke:#000000;stroke-width:0.790293;stroke-miterlimit:4;stroke-dasharray:none;stroke-opacity:1"
       id="rect986"
       width="210.87636"
       height="157.9597"
       x="0.39514616"
       y="0.39514616" />
    <path
       id="path1398"
       style="fill:none;stroke:#0080ff;stroke-width:0.79375;stroke-miterlimit:4;stroke-dasharray:none;stroke-opacity:1"
       d="m 106.2302,26.458333 v 52.916665 h 52.91667 A 52.916663,52.916663 0 0 0 106.2302,26.458333 Z" />
    <path
       id="path1398-2"
       style="fill:#0080ff;fill-opacity:0.4;stroke:#0080ff;stroke-width:0.79375;stroke-miterlimit:4;stroke-dasharray:none;stroke-opacity:1"
       d="m 59.058487,126.14683 9.35443,-9.354 a 52.916663,52.916663 0 0 1 0,-74.835999 l -9.35443,-9.354 a 66.145822,66.145835 44.999995 0 0 0,93.543999 z" />
    <circle
       style="fill:#ffffff;fill-opacity:1;fill-rule:evenodd;stroke:#000000;stroke-width:0.79375;stroke-miterlimit:4;stroke-dasharray:none;stroke-opacity:1"
       id="path846"
       cx="105.83333"
       cy="79.375"
       r="21.166666" />
    <path
       style="fill:none;stroke:#ffffff;stroke-width:1.32292;stroke-linecap:butt;stroke-linejoin:miter;stroke-miterlimit:4;stroke-dasharray:none;stroke-opacity:1"
       d="m 106.2302,18.123958 c 0,39.687499 0,39.687499 0,39.687499 z"
       id="path2088" />
    <path
       style="fill:none;stroke:#ffffff;stroke-width:1.32292;stroke-linecap:butt;stroke-linejoin:miter;stroke-miterlimit:4;stroke-dasharray:none;stroke-opacity:1"
       d="m 167.08437,79.375 c -39.6875,0 -39.6875,0 -39.6875,0 z"
       id="path2088-2" />
    <path
       id="path128"
       style="fill:#ff8000;fill-opacity:0.40000001;fill-rule:evenodd;stroke:#ff8000;stroke-width:3;stroke-miterlimit:4;stroke-dasharray:none;stroke-opacity:1"
       d="M 400 150 A 150 150 0 0 0 250 300 A 150 150 0 0 0 400 450 A 150 150 0 0 0 550 300 A 150 150 0 0 0 400 150 z M 400 175 A 125.00001 125.00001 0 0 1 525 300 A 125.00001 125.00001 0 0 1 400 425 A 125.00001 125.00001 0 0 1 275 300 A 125.00001 125.00001 0 0 1 400 175 z "
       transform="scale(0.26458333)" />
    <circle
       style="fill:none;fill-opacity:0.2;stroke:#ff8000;stroke-width:0.79374999;stroke-miterlimit:4;stroke-dasharray:none;stroke-opacity:1"
       id="path1155"
       cx="105.83333"
       cy="79.375"
       r="72.760414" />
  </g>
</svg>
