<?xml version="1.0" encoding="UTF-8" standalone="no"?>
<svg
   width="170.41px"
   height="175.73px"
   xmlns="http://www.w3.org/2000/svg"
   version="1.1">
    <path
       stroke="#000000"
       stroke-width="2"
       fill="#000000"
       d="m 73.505553,175.65588 c -4.26671,-0.20891 -8.45783,-1.06175 -13.183526,-2.6827 -3.258125,-1.11755 -4.455589,-1.68621 -7.064458,-3.35479 -1.727737,-1.10502 -3.993462,-2.71988 -5.034946,-3.58858 -2.076956,-1.73237 -5.748309,-6.23729 -7.132985,-8.75251 l -0.881221,-1.60071 -2.930599,-0.76029 c -3.838112,-0.99573 -5.361996,-1.62797 -9.796645,-4.06449 -3.302006,-1.81422 -4.019302,-2.34418 -6.805367,-5.028 -6.287137,-6.05639 -8.947547,-11.05913 -10.671133,-20.06643 -0.438419,-2.29114 -0.53609,-8.65478 -0.155612,-10.13875 0.623938,-2.43354 0.693547,-2.21516 -1.193736,-3.74513 -3.125396,-2.53367 -5.76238,-7.10521 -7.530988,-13.055916 l -1.10091503,-3.70417 -0.02051,-4.89479 c -0.01888,-4.50647 0.03656,-5.11519 0.698915,-7.67292 C 2.161825,76.907794 5.247144,71.560134 9.244991,67.738164 l 2.498061,-2.38816 -0.702336,-1.75556 c -0.639877,-1.59944 -0.705369,-2.09954 -0.736458,-5.62351 -0.02888,-3.27426 0.05837,-4.2062 0.568466,-6.0718 1.068641,-3.90839 3.212925,-7.62701 6.433844,-11.1576 1.777047,-1.947907 2.454396,-2.469709 5.05991,-3.897998 1.654514,-0.90696 4.052528,-1.97853 5.328923,-2.38125 l 2.320716,-0.73222 -0.167495,-1.71979 c -0.321588,-3.30203 0.659617,-8.13804 2.252589,-11.10219 0.276762,-0.51499 0.847367,-1.71026 1.268007,-2.65614 1.800421,-4.04856 7.3752,-9.4089499 13.41342,-12.8975899 3.992531,-2.30673 9.079302,-3.87786 15.303675,-4.72680999 2.56345,-0.34963 3.25232,-0.34682 6.48229,0.0264 1.98772,0.22968 4.97783,0.68210999 6.64469,1.00538999 l 3.030646,0.5878 2.393292,-0.60966 c 6.79925,-1.73201999 16.82792,-2.14999999 23.163099,-0.96540999 7.17928,1.34242999 11.83701,3.31616999 17.01879,7.21183999 2.76894,2.08169 3.85546,3.1112499 5.90926,5.5994599 1.42246,1.72333 2.96655,3.93693 3.55167,5.09166 l 1.03516,2.04287 1.52225,0.41779 c 3.8723,1.06277 5.47282,1.67722 8.79829,3.37771 4.08038,2.08652 5.58457,3.14742 8.69647,6.13361 3.5615,3.41761 5.18821,5.64487 7.34912,10.062248 2.6281,5.37242 3.30942,7.97424 3.46791,13.24326 0.0857,2.84871 0.002,4.72254 -0.29467,6.58049 l -0.41448,2.59764 1.51188,1.48962 c 2.80699,2.76565 5.93881,8.15383 7.18964,12.36949 0.94984,3.20125 1.4381,7.41784 1.20641,10.41845 -0.20934,2.7112 -1.2966,8.32506 -1.88123,9.71342 -1.62131,3.850246 -5.49858,9.453706 -8.45509,12.219376 l -1.76948,1.65527 0.49415,1.09615 c 0.4251,0.94297 0.49128,1.74441 0.47357,5.73462 l -0.0206,4.63846 -1.09818,2.83267 c -2.85296,7.35897 -7.53305,11.8688 -15.15825,14.6068 -1.25109,0.44923 -2.30995,0.87632 -2.35301,0.94908 -0.0431,0.0728 0.006,0.92386 0.11007,1.89133 0.13896,1.29758 0.0469,2.54698 -0.35074,4.7625 -1.20021,6.68652 -3.27721,10.59351 -8.46612,15.92543 -3.28731,3.37791 -6.56533,5.45098 -13.25612,8.38336 -5.41205,2.37194 -15.36279,3.21502 -21.166669,1.79334 l -2.24896,-0.55089 -3.57187,0.9467 c -5.42578,1.43806 -11.842185,2.05763 -18.123948,1.75006 z m 9.260398,-0.88067 c 0.87313,-0.20177 2.58974,-0.45229 3.81469,-0.55672 1.24229,-0.10591 3.80396,-0.64048 5.79275,-1.20884 1.96106,-0.56043 3.68589,-0.94459 3.83296,-0.85369 0.14707,0.0909 0.18863,0.0378 0.0923,-0.118 -0.21795,-0.35264 3.12335,-1.50681 3.5675,-1.23231 0.209649,0.12957 0.240809,0.0779 0.0952,-0.15777 -0.15726,-0.25444 -0.096,-0.30415 0.223699,-0.18147 0.24215,0.0929 0.44028,0.0536 0.44028,-0.0873 0,-0.14096 0.10773,-0.25628 0.23941,-0.25628 0.38168,0 8.4898,-3.97891 9.94705,-4.88132 0.7276,-0.45058 1.62057,-0.96918 1.98437,-1.15245 1.30194,-0.65586 3.42142,-2.05245 4.54519,-2.99495 0.62885,-0.5274 1.70596,-1.25464 2.39359,-1.61607 0.68764,-0.36144 1.18758,-0.71983 1.11098,-0.79643 -0.0766,-0.0766 0.23293,-0.26902 0.68783,-0.4276 0.45491,-0.15858 0.75161,-0.41047 0.65935,-0.55976 -0.0923,-0.14928 -0.006,-0.27142 0.19104,-0.27142 0.19734,0 0.82384,-0.47625 1.39223,-1.05834 0.56839,-0.58208 1.19205,-1.05833 1.38592,-1.05833 0.19387,0 0.65306,-0.19694 1.02043,-0.43765 0.50416,-0.33034 0.58297,-0.49153 0.32142,-0.65741 -0.26456,-0.16778 -0.24275,-0.22071 0.0922,-0.22381 0.24129,-0.002 0.77708,-0.53962 1.19062,-1.1942 0.47834,-0.75714 0.94443,-1.1918 1.28107,-1.19467 0.4416,-0.004 0.46349,-0.0484 0.13229,-0.2699 -0.34614,-0.23145 -0.33769,-0.30026 0.0661,-0.53827 0.25467,-0.15008 0.46303,-0.43266 0.46303,-0.62793 0,-0.19528 0.26789,-0.42445 0.59531,-0.50928 0.32742,-0.0848 0.87855,-0.57399 1.22473,-1.08702 0.34618,-0.51303 0.73313,-0.93278 0.85989,-0.93278 0.12677,0 0.23048,-0.22354 0.23048,-0.49677 0,-0.27322 0.1786,-0.64499 0.39688,-0.82614 0.47169,-0.39147 0.50669,-0.17999 0.10138,0.6127 -0.2595,0.50754 -0.24884,0.52959 0.0876,0.18105 2.46574,-2.55467 5.30278,-6.96735 4.64849,-7.23018 -0.22399,-0.09 -0.19087,-0.14349 0.0974,-0.15727 0.24029,-0.0115 0.68698,-0.44476 0.99264,-0.96283 0.30567,-0.51806 0.43786,-0.86907 0.29375,-0.78 -0.15028,0.0929 -0.19506,-0.0125 -0.10502,-0.24717 0.0863,-0.22501 0.26357,-0.34322 0.39384,-0.26271 0.21471,0.1327 0.3482,-0.23801 0.26819,-0.74474 -0.0172,-0.10914 0.075,-0.19844 0.20495,-0.19844 0.12995,0 0.30718,-0.18477 0.39384,-0.41062 0.10032,-0.26141 0.0501,-0.34417 -0.13831,-0.22775 -0.17974,0.11109 -0.24346,0.0386 -0.16233,-0.18469 0.0735,-0.20216 0.2591,-0.34059 0.41255,-0.30763 0.1633,0.0351 0.22728,-0.22533 0.15429,-0.62787 -0.10422,-0.57472 -0.0468,-0.65812 0.34938,-0.50728 0.35482,0.13511 0.39859,0.10441 0.17397,-0.12204 -0.33532,-0.33806 -0.17441,-1.31628 0.21652,-1.31628 0.13836,0 0.17598,-0.23813 0.0836,-0.52917 -0.0924,-0.29104 -0.0536,-0.52917 0.0862,-0.52917 0.13976,0 0.32501,-0.18477 0.41167,-0.41062 0.0904,-0.23545 0.046,-0.34166 -0.10398,-0.24896 -0.14385,0.0889 -0.26155,0.0356 -0.26155,-0.11855 0,-0.15411 0.12708,-0.2802 0.28241,-0.2802 0.16755,0 0.20983,-0.22869 0.10394,-0.5623 -0.10964,-0.34545 -0.0771,-0.49966 0.0844,-0.39987 0.40351,0.24939 0.64781,-2.45275 0.44488,-4.92078 -0.22088,-2.68628 -1.43155,-6.92856 -2.5204,-8.83166 -0.44639,-0.78022 -0.73742,-1.53865 -0.64672,-1.6854 0.0907,-0.14674 0.66415,-0.21011 1.27436,-0.1408 1.24643,0.14156 6.67992,0.22956 7.39331,0.11973 0.25466,-0.0392 0.46302,-0.18439 0.46302,-0.32263 0,-0.13824 0.23829,-0.18903 0.52953,-0.11287 0.29125,0.0762 0.46563,0.0351 0.38752,-0.0913 -0.15791,-0.2555 2.74071,-1.17838 2.97264,-0.94646 0.27556,0.27557 1.84388,-0.56286 2.74754,-1.46885 0.49687,-0.49814 1.26059,-1.17451 1.69715,-1.50303 2.63369,-1.98189 5.07634,-4.31828 6.92328,-6.62211 0.77079,-0.96147 1.57096,-1.92671 1.77814,-2.14499 0.43847,-0.46195 1.74962,-3.345116 1.74962,-3.847346 0,-0.18804 0.0933,-0.38159 0.20743,-0.4301 0.11409,-0.0485 0.54405,-1.23756 0.95548,-2.64234 0.70446,-2.40531 0.83179,-3.27951 1.0594,-7.2732 0.051,-0.89389 0.16087,-1.73569 0.24428,-1.87065 0.0834,-0.13496 -0.0102,-1.17746 -0.20803,-2.31667 -0.19782,-1.13921 -0.30582,-2.21165 -0.23999,-2.3832 0.0658,-0.17156 -0.0228,-0.65987 -0.19695,-1.08515 -0.17415,-0.42528 -0.33946,-0.8923 -0.36737,-1.03782 -0.0279,-0.14552 -0.0838,-0.35388 -0.12411,-0.46302 -0.0818,-0.22131 -0.0833,-0.22725 -0.38591,-1.52135 -0.64182,-2.74509 -5.71383,-10.79586 -7.35466,-11.67401 -0.69594,-0.37245 -0.77599,-0.23233 -1.6679,2.91974 -1.00868,3.56472 -3.55614,8.34279 -6.62064,12.41777 -1.92761,2.56322 -6.67744,6.56635 -10.70103,9.01876 -3.50359,2.13547 -4.06602,2.38898 -6.48229,2.9218 -1.45521,0.3209 -3.28212,0.62356 -4.05981,0.6726 -0.77769,0.049 -1.47762,0.15278 -1.55539,0.23056 -0.0778,0.0778 0.23638,0.73016 0.69813,1.44974 0.46175,0.71957 1.14234,2.41332 1.51242,3.76388 0.67125,2.449606 0.67182,2.461046 0.23366,4.721006 -0.24158,1.246 -0.46037,2.44405 -0.48621,2.66233 -0.0258,0.21828 1.35943,1.69704 3.07835,3.28613 2.84314,2.62839 4.30468,4.38679 3.64618,4.38679 -0.13945,0 -0.32587,-0.22787 -0.41426,-0.50637 -0.21281,-0.67049 -6.14247,-6.19042 -6.44744,-6.00194 -0.13044,0.0806 -0.31611,0.65523 -0.41259,1.27692 -0.25949,1.67201 -2.12656,5.50212 -4.29136,8.80326 -1.7214,2.62501 -5.66576,7.29118 -8.83437,10.45104 -4.3002,4.28834 -14.96543,12.54136 -19.708979,15.25132 -7.01534,4.00782 -13.06148,6.89183 -19.182282,9.14995 -7.880686,2.90739 -10.941966,3.64999 -19.446867,4.71739 -5.593752,0.70204 -7.104581,0.80349 -9.789584,0.65737 -6.100752,-0.33202 -8.311851,-0.54162 -8.582895,-0.8136 -0.413623,-0.41506 2.278756,-0.39383 5.666729,0.0447 1.597565,0.20677 3.383503,0.30876 3.96875,0.22664 0.893406,-0.12536 9.322893,-0.89381 11.159131,-1.01729 0.31353,-0.0211 0.51486,-0.12763 0.44741,-0.23677 -0.11399,-0.18444 0.47265,-0.25594 2.819,-0.34361 2.19984,-0.0822 4.77438,-0.93979 5.86135,-1.95246 0.31135,-0.29006 1.11421,-0.60908 1.78414,-0.70891 0.66993,-0.0998 1.45617,-0.33175 1.74722,-0.51535 0.29104,-0.1836 1.24354,-0.47096 2.11666,-0.63859 0.873126,-0.16763 2.480466,-0.6035 3.571858,-0.9686 2.64944,-0.88631 9.39235,-4.19711 10.71563,-5.26142 0.58208,-0.46817 1.38576,-0.92668 1.78594,-1.0189 0.40018,-0.0922 1.05502,-0.24633 1.45521,-0.34246 0.40018,-0.0961 1.0437,-0.4078 1.43005,-0.69261 0.40649,-0.29967 0.84175,-0.43176 1.03307,-0.31352 0.20403,0.12611 0.26387,0.0963 0.15628,-0.0777 -0.20322,-0.32882 2.45085,-2.30103 3.995179,-2.96877 0.32742,-0.14157 0.59531,-0.35331 0.59531,-0.47053 0,-0.11721 0.38696,-0.37885 0.8599,-0.5814 0.47294,-0.20255 0.97896,-0.42661 1.12448,-0.49791 0.14552,-0.0713 0.0917,0.0981 -0.11953,0.37642 -0.33577,0.44235 -0.33577,0.46275 0,0.16209 0.21126,-0.18918 0.38411,-0.47691 0.38411,-0.63941 0,-0.1625 0.1654,-0.35058 0.36756,-0.41797 0.25418,-0.0847 0.29972,-0.01 0.14765,0.24253 -0.18615,0.30901 -0.15163,0.30968 0.22484,0.004 0.24461,-0.19839 0.37878,-0.46744 0.29815,-0.5979 -0.0806,-0.13046 0.2413,-0.56345 0.7154,-0.96221 0.4741,-0.39876 1.0474,-0.91916 1.27399,-1.15645 0.64735,-0.6779 4.60838,-3.40501 4.94566,-3.40501 0.0982,0 -0.0483,0.26789 -0.32547,0.59531 l -0.50403,0.59531 0.58481,-0.49452 c 0.32165,-0.27199 0.56314,-0.56965 0.53666,-0.66146 -0.0265,-0.0918 0.81167,-1.031 1.86258,-2.08708 1.05091,-1.05607 1.91739,-2.00857 1.92551,-2.11666 0.0175,-0.23308 2.77999,-2.44549 3.05351,-2.44549 0.10381,0 -0.0268,0.23813 -0.29015,0.52917 -0.26339,0.29104 -0.42661,0.52917 -0.3627,0.52917 0.0639,0 0.76697,-0.68397 1.56236,-1.51992 0.90468,-0.95081 1.02513,-1.12884 0.32169,-0.47547 -0.61846,0.57445 -1.12448,0.91507 -1.12448,0.75695 0,-0.15812 0.46599,-0.70848 1.03553,-1.22303 0.56954,-0.51454 0.98945,-0.98161 0.93314,-1.03792 -0.0563,-0.0563 0.27809,-0.51238 0.74312,-1.01348 0.46504,-0.5011 0.8488,-0.99526 0.8528,-1.09814 0.004,-0.10288 0.20066,-0.341 0.437,-0.52917 0.23634,-0.18816 0.90284,-1.05649 1.48112,-1.92962 0.57829,-0.87312 1.54577,-2.31688 2.14998,-3.20836 0.60421,-0.89147 1.09856,-1.75468 1.09856,-1.91823 0,-0.16355 0.11906,-0.29736 0.26459,-0.29736 0.14552,0 0.26458,-0.19134 0.26458,-0.42519 0,-0.27556 0.14449,-0.36973 0.41062,-0.26761 0.22583,0.0867 0.34339,0.0488 0.26122,-0.0842 -0.19264,-0.31169 0.40091,-1.62661 0.66154,-1.46553 0.15864,0.098 0.4796,-0.68776 0.54051,-1.3233 0.007,-0.0707 0.12658,-0.51775 0.26622,-0.99338 0.13965,-0.47564 0.3175,-1.28151 0.39523,-1.79083 0.0777,-0.50933 0.21275,-1.16417 0.30003,-1.45521 0.0873,-0.29104 0.30091,-1.27915 0.47472,-2.19579 0.28397,-1.49764 0.25476,-1.90822 -0.28819,-4.049486 -0.80057,-3.15728 -1.55431,-4.36295 -5.42771,-8.68209 -2.78817,-3.10901 -2.42729,-2.82481 -5.86658,-4.62013 -2.38245,-1.24364 -3.07501,-1.48836 -4.23334,-1.49587 -0.76828,-0.005 -1.83463,-0.2218 -2.39499,-0.48698 -0.97998,-0.46375 -1.06674,-0.46248 -2.90915,0.0427 -1.09183,0.29938 -2.04618,0.73079 -2.24519,1.01492 -0.83572,1.19316 -4.7812,5.81286 -6.37646,7.4661 -6.306539,6.53575 -17.000399,14.344696 -25.394527,18.543806 -7.70797,3.85585 -16.962153,7.47382 -23.712478,9.27051 -5.616763,1.49498 -13.262594,2.22904 -20.505208,1.96867 -3.719071,-0.1337 -4.953403,-0.29522 -8.334376,-1.09061 -2.182812,-0.51351 -4.644189,-1.23595 -5.469728,-1.60542 -2.089111,-0.93498 -5.165784,-2.74017 -6.494799,-3.81073 l -1.11661,-0.89946 -0.165839,0.73887 c -0.09121,0.40638 -0.272682,1.15559 -0.403267,1.66492 -0.37243,1.45257 -0.280794,6.79979 0.155612,9.08041 1.24633,6.51321 3.04737,10.91713 6.251919,15.28726 1.920304,2.61878 6.977901,7.39165 9.22043,8.70136 3.215969,1.87822 8.787485,4.4429 10.325408,4.75299 2.096989,0.4228 4.497916,1.15803 4.497916,1.37737 0,0.4216 1.833859,3.16601 3.867521,5.78783 2.506914,3.23195 4.694227,5.14296 9.143778,7.98875 2.512404,1.60685 3.824475,2.24885 6.138412,3.00351 1.618649,0.5279 3.172389,1.08221 3.452759,1.23179 0.28037,0.14958 2.2449,0.60104 4.36563,1.00325 3.26012,0.6183 4.59167,0.73503 8.61836,0.75551 3.201333,0.0163 5.282868,-0.096 6.349978,-0.34262 z m 50.403129,-29.25866 c 0,-0.14552 0.12609,-0.26459 0.2802,-0.26459 0.15411,0 0.20661,0.11907 0.11667,0.26459 -0.0899,0.14552 -0.21602,0.26458 -0.28019,0.26458 -0.0642,0 -0.11668,-0.11906 -0.11668,-0.26458 z m -21.41073,27.5036 c 0.78908,-0.16039 1.80987,-0.46119 2.26842,-0.66845 0.45856,-0.20725 0.99529,-0.37682 1.19273,-0.37682 0.19745,0 0.89383,-0.28143 1.54752,-0.62541 0.65368,-0.34397 1.66477,-0.7795 2.24685,-0.96784 0.58208,-0.18833 1.53458,-0.62124 2.11667,-0.96202 0.58208,-0.34077 1.68341,-0.93659 2.44739,-1.32405 0.76399,-0.38745 1.38907,-0.8042 1.38907,-0.92611 0,-0.12191 0.20836,-0.22257 0.46302,-0.22368 0.59088,-0.003 4.56912,-2.95074 4.3846,-3.2493 -0.0761,-0.12313 0.11174,-0.28928 0.41742,-0.36922 0.31648,-0.0828 0.55579,-0.3599 0.55579,-0.64365 0,-0.2782 0.18504,-0.4983 0.41892,-0.4983 0.23041,0 0.36836,-0.14883 0.30656,-0.33073 -0.11133,-0.32768 1.37787,-1.52136 1.89801,-1.52136 0.14868,0 0.20179,-0.17859 0.11802,-0.39687 -0.095,-0.24745 0.002,-0.39688 0.25727,-0.39688 0.22527,0 0.49566,-0.13929 0.60088,-0.30954 0.12864,-0.20814 0.0471,-0.2542 -0.24897,-0.1406 -0.71635,0.27489 -0.50443,0.0111 0.4376,-0.54471 0.48283,-0.28488 1.13856,-0.95979 1.45717,-1.4998 l 0.5793,-0.98184 -0.58039,0.18421 c -0.49009,0.15555 -0.43159,0.0104 0.37605,-0.93318 1.36871,-1.59903 3.52274,-6.35787 2.87781,-6.35787 -0.32782,0 -0.15721,-1.14874 0.18769,-1.26371 0.41584,-0.13861 0.39779,-1.11531 -0.0208,-1.12595 -0.19135,-0.005 -0.1216,-0.16678 0.16547,-0.38417 0.31522,-0.2387 0.43258,-0.54155 0.32177,-0.83033 -0.0959,-0.25002 -0.0423,-0.53623 0.11916,-0.63603 0.2143,-0.13244 0.2068,-0.7813 -0.0278,-2.4024 -0.49267,-3.40469 -0.48916,-3.40348 -1.93068,-0.66607 -1.74376,3.31134 -9.23227,12.05959 -12.8693,15.03419 -4.02386,3.29099 -13.12668,9.32617 -16.32738,10.82507 -4.12182,1.93027 -11.403519,4.99367 -11.929809,5.01885 -0.24756,0.0119 0.26427,0.2496 1.1374,0.52833 1.41103,0.45045 2.178009,0.49295 6.899689,0.38233 2.9217,-0.0685 5.9578,-0.25569 6.74687,-0.41609 z m 31.56103,-34.51411 c 2.88774,-1.0602 4.78295,-1.98533 4.06713,-1.98533 -0.6117,0 -0.58407,-0.44366 0.0487,-0.78233 0.36813,-0.19701 0.53744,-0.18292 0.61549,0.0512 0.0762,0.22858 0.32472,0.16995 0.85009,-0.20055 0.40833,-0.28796 0.99249,-0.66741 1.29813,-0.84323 0.73825,-0.42466 2.0789,-1.96475 3.40688,-3.91367 0.59493,-0.87312 1.4632,-1.94469 1.92947,-2.38125 0.77973,-0.73005 1.62142,-2.57733 2.47137,-5.42396 0.88686,-2.97024 0.90766,-8.63505 0.0401,-10.91406 -0.34719,-0.91201 -0.80058,-1.33417 -0.80058,-0.74543 0,0.13571 -0.26789,0.32998 -0.59531,0.4317 -0.32742,0.10173 -1.72641,0.68726 -3.10885,1.30118 -3.88213,1.72398 -8.71039,2.47677 -11.72954,1.82879 -0.89756,-0.19264 -1.72996,-0.35444 -1.84978,-0.35955 -0.11982,-0.005 0.1553,0.64291 0.61138,1.44005 1.31669,2.30133 2.29986,5.72493 2.51188,8.74683 0.27825,3.96597 -0.54548,8.48456 -2.07224,11.36737 -1.08569,2.04998 -1.37985,3.68668 -0.61855,3.44159 0.173,-0.0557 1.48891,-0.53242 2.92423,-1.05939 z m -37.36863,-2.18377 c 0.3291,-0.41964 0.31974,-0.429 -0.0999,-0.0999 -0.25466,0.19972 -0.46302,0.40808 -0.46302,0.46302 0,0.21776 0.21727,0.0776 0.56292,-0.36313 z m 1.85208,-1.32291 c 0.32911,-0.41965 0.31975,-0.42901 -0.0999,-0.0999 -0.25466,0.19972 -0.46302,0.40808 -0.46302,0.46302 0,0.21777 0.21728,0.0776 0.56292,-0.36312 z m 1.05833,-0.79375 c 0.32911,-0.41965 0.31975,-0.42901 -0.0999,-0.0999 -0.25467,0.19972 -0.46302,0.40808 -0.46302,0.46302 0,0.21777 0.21727,0.0776 0.56291,-0.36312 z m 1.43811,-1.19063 0.7771,-0.85989 -0.8599,0.7771 c -0.80154,0.72437 -0.98151,0.94269 -0.7771,0.94269 0.0455,0 0.43249,-0.38695 0.8599,-0.8599 z m 3.85356,-3.30729 c 0.32911,-0.41964 0.31975,-0.429 -0.0999,-0.0999 -0.25466,0.19972 -0.46302,0.40808 -0.46302,0.46302 0,0.21776 0.21728,0.0776 0.56292,-0.36313 z m -68.188035,-9.73866 c 2.639897,-0.4644 5.621108,-1.34242 5.857666,-1.72518 0.08293,-0.13418 0.58769,-0.24397 1.121688,-0.24397 0.844511,0 10.283484,-2.98845 10.639534,-3.36855 0.0728,-0.0777 -0.32592,-0.0583 -0.88594,0.043 -0.62314,0.11277 -0.95793,0.0867 -0.86282,-0.0672 0.0855,-0.1383 0.60321,-0.33027 1.15052,-0.42659 1.32078,-0.23244 4.17538,-1.12964 5.49303,-1.72646 0.58208,-0.26365 2.18942,-0.93065 3.57187,-1.48222 1.38245,-0.55158 3.04932,-1.29658 3.70417,-1.65557 2.392996,-1.31184 6.443008,-3.90308 7.208008,-4.61175 0.43199,-0.40019 0.9812,-0.72579 1.22048,-0.72356 0.371,0.003 0.37774,0.0403 0.0458,0.2502 -0.21406,0.13538 -0.3187,0.31665 -0.23253,0.40283 0.1645,0.1645 2.76554,-1.84959 5.27889,-4.08767 0.81518,-0.725896 2.18439,-1.792656 3.04271,-2.370566 0.85831,-0.57792 1.85915,-1.32478 2.22408,-1.6597 0.36494,-0.33492 1.11089,-0.99384 1.65766,-1.46427 0.54677,-0.47043 1.01899,-0.94668 1.04939,-1.05834 0.10258,-0.37689 1.08844,-1.39362 1.35131,-1.39362 0.14345,0 0.4494,-0.17307 0.67989,-0.38459 0.785179,-0.72059 1.487709,-1.33411 3.017039,-2.63479 1.10215,-0.93735 1.43239,-1.36026 1.18483,-1.5173 -0.23864,-0.15138 -0.16183,-0.21895 0.25209,-0.22177 0.35098,-0.002 0.59532,-0.16694 0.59532,-0.40093 0,-0.21828 0.11906,-0.39687 0.26458,-0.39687 0.14552,0 0.26458,-0.11293 0.26458,-0.25095 0,-0.13803 0.28764,-0.56131 0.63919,-0.94065 0.57151,-0.61666 1.82019,-2.87595 1.85918,-3.36389 0.008,-0.10442 0.22713,-0.4374 0.48618,-0.73995 0.25905,-0.30255 0.40919,-0.65011 0.33364,-0.77235 -0.0756,-0.12224 0.0399,-0.36939 0.2566,-0.54922 0.21668,-0.17982 0.39396,-0.50237 0.39396,-0.71675 0,-0.43293 0.79591,-1.96433 1.15761,-2.22733 0.32559,-0.23676 0.21244,-3.65494 -0.13019,-3.93266 -0.0898,-0.0728 -0.58944,-1.05808 -1.11039,-2.1896 -0.75566,-1.64128 -1.37592,-2.48087 -3.06738,-4.15199 -5.00602,-4.94583 -11.174359,-7.6313 -15.289839,-6.65663 -1.1655,0.27602 -5.14469,1.99604 -5.76897,2.49366 -0.14564,0.11608 -2.52698,1.60948 -5.291872,3.31866 -6.848426,4.23349 -12.867526,7.6255 -16.668736,9.3935 -4.432082,2.06144 -14.082548,5.64966 -16.933338,6.29614 -2.129552,0.48292 -2.618965,0.50723 -4.630208,0.22999 -4.624184,-0.63744 -11.191127,-2.27568 -15.081251,-3.76228 -1.639929,-0.6267 -5.281366,-2.74934 -6.482291,-3.77863 -0.436563,-0.37416 0.456406,0.0793 1.984375,1.00782 2.923005,1.77615 3.983392,2.20862 9.128125,3.72287 3.4554,1.01703 7.04624,1.80561 10.246154,2.25015 2.820834,0.39188 4.810162,-0.058 11.846554,-2.6788 9.51703,-3.54479 14.45696,-6.04327 25.571776,-12.93351 2.786612,-1.72746 5.263142,-3.21627 5.503392,-3.30846 0.24025,-0.0922 0.50525,-0.50978 0.58889,-0.92797 0.15628,-0.78139 0.87968,-1.07715 0.87968,-0.35966 0,0.31607 0.32127,0.23996 1.52135,-0.36041 0.83674,-0.41861 2.14312,-0.90765 2.90304,-1.08677 1.29975,-0.30634 1.39205,-0.38305 1.55619,-1.29323 0.096,-0.53216 0.26761,-1.14891 0.38143,-1.37056 0.33344,-0.64934 1.44157,-7.01725 1.67947,-9.65117 0.13922,-1.54145 0.48858,-3.31524 0.67572,-3.4309 0.10422,-0.0644 0.17577,-0.5303 0.15902,-1.03531 -0.0168,-0.50502 0.0732,-0.85413 0.19994,-0.77581 0.12672,0.0783 0.19464,-0.19854 0.15093,-0.61524 -0.0437,-0.4167 -0.003,-0.88158 0.0907,-1.03306 0.16133,-0.26103 0.6896,-6.609048 0.71466,-8.587818 0.0599,-4.7288 -1.98999,-13.33189 -4.24067,-17.79745 -1.88626,-3.74251 -5.98604,-7.8135799 -10.1825,-10.1111899 -2.393482,-1.31047 -3.102782,-1.55991 -6.104048,-2.14663 -5.95659,-1.16446 -9.36755,-1.44830999 -12.40443,-1.03227 -5.995147,0.82131 -11.133559,2.42273 -15.068538,4.6962 -6.03822,3.48864 -11.612999,8.8490399 -13.41342,12.8975899 -0.42064,0.94589 -0.991246,2.14115 -1.268008,2.65614 -0.946187,1.76064 -1.826535,4.61877 -2.099849,6.81736 -0.289926,2.33222 -0.114975,5.34317 0.310464,5.34317 0.140166,0 0.926878,-0.17066 1.748248,-0.37924 2.248725,-0.57105 7.895474,-0.97714 9.166315,-0.6592 0.582083,0.14563 2.30849,0.37601 3.836458,0.51196 4.203632,0.37399 7.154522,0.9639 9.029193,1.80501 0.93042,0.41745 2.278731,0.84704 2.996247,0.95463 1.33091,0.19959 7.9144,3.342391 12.31622,5.879488 2.88261,1.66146 9.524996,7.01833 9.524996,7.6816 0,0.13462 -0.6846,-0.38741 -1.52135,-1.16006 -0.836736,-0.77264 -1.611816,-1.40486 -1.722396,-1.40491 -0.11058,-6e-5 -1.06308,-0.69837 -2.11667,-1.55181 -2.86236,-2.3186 -4.78328,-3.47894 -10.3534,-6.254047 -3.483374,-1.735461 -5.467439,-2.571271 -6.378881,-2.687181 -0.727604,-0.0925 -2.037292,-0.50228 -2.910417,-0.91054 -1.76113,-0.82349 -4.921089,-1.45222 -9.128125,-1.81621 -1.527969,-0.1322 -3.172031,-0.36069 -3.653473,-0.50776 -1.383297,-0.42257 -6.836402,0.1302 -10.501736,1.06454 -3.8785,0.98868 -5.413875,1.59862 -8.780004,3.48789 -3.805939,2.136128 -6.900469,5.647708 -9.465498,10.741178 -1.569691,3.11699 -2.132169,5.70968 -2.082965,9.60122 0.03716,2.93897 0.128625,3.57741 0.726636,5.07221 0.376267,0.94052 0.684123,1.96193 0.684123,2.2698 0,0.36166 -0.880922,1.40192 -2.489208,2.93945 -3.992026,3.8164 -7.082718,9.17831 -8.530436,14.79908 -0.64297503,2.49635 -0.71348503,3.22091 -0.69519003,7.14375 0.02015,4.32021 0.03177,4.40416 1.11755003,8.06979 1.760782,5.944496 4.398895,10.519846 7.528543,13.056966 0.960205,0.77841 1.745824,1.52255 1.745824,1.65364 0,0.1311 0.1523,0.23836 0.338445,0.23836 0.186142,0 0.751689,0.39583 1.25677,0.87963 0.505079,0.4838 1.096921,0.96161 1.315202,1.06181 0.218281,0.10019 1.051719,0.54827 1.852083,0.99573 3.58624,2.00495 9.443239,3.78121 13.890625,4.21262 3.234442,0.31375 13.74483,0.0455 16.380074,-0.41814 z m 29.672998,-12.94095 c 0.28248,-0.21365 0.63266,-0.38845 0.77818,-0.38845 0.14552,0 0.0335,0.1748 -0.24901,0.38845 -0.28248,0.21366 -0.63265,0.38847 -0.77817,0.38847 -0.14553,0 -0.0335,-0.17481 0.249,-0.38847 z m 48.403157,12.5593 c 0.26339,-0.29104 0.41936,-0.52917 0.3466,-0.52917 -0.0728,0 -0.34779,0.23813 -0.61118,0.52917 -0.26339,0.29104 -0.41936,0.52917 -0.3466,0.52917 0.0728,0 0.34779,-0.23813 0.61118,-0.52917 z m 10.34957,-28.227366 c 1.4235,-0.31279 1.8804,-0.50198 1.52888,-0.63306 -0.48407,-0.1805 -0.48311,-0.19337 0.0278,-0.37302 0.84093,-0.2957 1.03355,-0.38103 1.45521,-0.64464 0.21828,-0.13646 1.11125,-0.52077 1.98438,-0.85403 2.10539,-0.80359 2.82369,-1.2479 4.53274,-2.80383 0.35964,-0.32742 0.77385,-0.59531 0.92046,-0.59531 0.14661,0 0.18803,-0.12708 0.092,-0.28239 -0.0961,-0.1555 0.0752,-0.34771 0.38126,-0.42774 0.30568,-0.0799 0.55579,-0.30391 0.55579,-0.49772 0,-0.35453 1.11531,-1.70257 1.40863,-1.70257 0.0865,0 0.48959,-0.30109 0.8957,-0.66909 0.40611,-0.368 1.27416,-1.09784 1.929,-1.62185 0.65485,-0.52402 1.19063,-1.0351 1.19063,-1.13575 0,-0.10064 0.20836,-0.39134 0.46302,-0.64601 0.25466,-0.25466 0.46302,-0.54502 0.46302,-0.64526 0,-0.10023 0.32655,-0.53441 0.72567,-0.96485 1.45582,-1.57002 2.75813,-3.97223 3.91184,-7.21563 0.27176,-0.76398 0.64918,-1.38906 0.83871,-1.38906 0.18954,0 0.34461,-0.12609 0.34461,-0.2802 0,-0.15411 -0.11906,-0.20661 -0.26458,-0.11668 -0.14552,0.0899 -0.26458,0.0337 -0.26458,-0.12498 0,-0.15867 0.17287,-0.35484 0.38417,-0.43592 0.21787,-0.0836 0.46159,-0.68133 0.56299,-1.38076 0.21633,-1.49218 0.5346,-2.15938 1.03008,-2.15938 0.20802,0 0.3536,-0.23256 0.33126,-0.52916 -0.0219,-0.29105 -0.15204,-0.52917 -0.28915,-0.52917 -0.13711,0 -0.072,-0.20836 0.1446,-0.46302 0.38624,-0.45404 1.02588,-6.19553 1.01548,-9.1151 -0.004,-1.21166 -0.40477,-3.64717 -0.73082,-4.4448 -0.0892,-0.21828 -0.18297,-0.58034 -0.20831,-0.80456 -0.0463,-0.40939 -0.55799,-2.15814 -0.84849,-2.8996 -0.0855,-0.21829 -0.16716,-0.45641 -0.18143,-0.52917 -0.0143,-0.0728 -0.78024,-1.67779 -1.70216,-3.56672 -2.34836,-4.811598 -5.69986,-8.889888 -10.374,-12.623648 -1.6028,-1.28034 -6.50049,-3.97841 -9.24256,-5.09161 -1.38066,-0.5605 -5.37308,-1.73678 -5.89483,-1.73678 -0.065,0 0.20985,0.98226 0.61071,2.18281 1.89071,5.66249 2.05626,7.09823 1.48871,12.91123 -1.13627,11.638118 -6.19995,22.419558 -14.68301,31.262668 -1.42769,1.48829 -3.5487,3.345 -4.80491,4.20619 -3.24962,2.22774 -3.48846,2.46379 -3.29061,3.2521 0.26741,1.06545 -0.41297,4.39482 -1.23035,6.02052 l -0.7516,1.49489 1.37951,-0.36727 c 1.7708,-0.47144 2.54746,-0.46657 3.71995,0.0233 0.52242,0.21828 1.49902,0.39687 2.17023,0.39687 0.96229,0 1.84537,0.31887 4.17569,1.5078 2.67194,1.36322 3.21553,1.77316 5.66925,4.2753 3.34452,3.41054 4.20848,3.6941 8.42937,2.76663 z m -21.93944,-19.13429 c 0.46505,-0.43588 0.96058,-0.79252 1.10118,-0.79252 0.1406,0 0.22347,-0.29301 0.18416,-0.65113 -0.0541,-0.4925 0.1611,-0.80975 0.8832,-1.30226 1.05781,-0.72149 4.52654,-3.92576 4.52654,-4.18143 0,-0.22916 1.86455,-2.06726 2.09701,-2.06726 0.29824,0 1.36496,-1.21234 1.20631,-1.37099 -0.0776,-0.0776 0.0404,-0.29171 0.26216,-0.47579 0.2218,-0.18408 0.40327,-0.4987 0.40327,-0.69916 0,-0.48467 -0.64561,-0.4649 -1.05833,0.0324 -0.18116,0.21828 -0.44387,0.39687 -0.5838,0.39687 -0.13993,0 0.14254,-0.48984 0.62771,-1.08854 1.31279,-1.61999 2.30424,-2.96251 2.51782,-3.40937 0.10432,-0.21828 0.40454,-0.62822 0.66715,-0.91096 0.26261,-0.28275 0.91062,-1.35432 1.44001,-2.38125 1.09647,-2.12699 1.79962,-3.11567 2.04286,-2.87243 0.0921,0.0921 0.16742,-0.0441 0.16742,-0.30267 0,-0.25854 0.3472,-1.14159 0.77156,-1.96232 0.81511,-1.57648 1.6736,-4.23088 2.15127,-6.65162 0.15794,-0.80037 0.3568,-1.63381 0.44191,-1.85209 0.18388,-0.471547 0.20271,-0.560347 0.63607,-2.999128 0.18526,-1.04262 0.33704,-3.14582 0.33728,-4.67379 2.7e-4,-2.48593 -0.11757,-3.18346 -1.12158,-6.63191 -1.42549,-4.89608 -2.74425,-7.42211 -5.88615,-11.27473 -2.06089,-2.52706 -3.08219,-3.49994 -5.92932,-5.6481899 -5.2101,-3.93118 -9.81753,-5.89166 -17.05747,-7.25803 -5.927819,-1.11872999 -14.148739,-0.80516999 -21.366849,0.81495 l -2.970142,0.66666 2.573262,1.34584 c 4.0415,2.11373 8.14771,6.1022499 9.95025,9.6650499 1.10216,2.17848 2.50177,6.24055 3.39513,9.85369 0.79173,3.20211 0.81737,3.49241 0.80595,9.12812 -0.0127,6.288221 -0.0636,6.725728 -2.15151,18.520848 -0.59248,3.34698 -1.24302,6.63596 -1.44565,7.30885 l -0.36841,1.22343 1.61772,0.1437 c 2.08622,0.18531 5.74014,1.68087 8.258409,3.38018 1.06685,0.71991 3.0664,2.40943 4.44343,3.75451 2.1141,2.06502 2.61691,2.72349 3.23123,4.23152 0.6763,1.6602 0.78476,1.78585 1.54046,1.78471 0.53725,-7.9e-4 1.09968,-0.26998 1.65848,-0.79375 z m 45.24864,-2.44617 c 0.007,-0.1819 0.10382,-0.56885 0.21533,-0.85989 0.13877,-0.3622 0.11635,-0.44568 -0.071,-0.26459 -0.38733,0.37431 -0.68087,1.45521 -0.39519,1.45521 0.13107,0 0.24398,-0.14883 0.2509,-0.33073 z m -33.79106,-9.98802 c 0.32266,-0.20851 0.28846,-0.25724 -0.18282,-0.26053 -0.31883,-0.002 -0.65328,0.11501 -0.74322,0.26053 -0.20819,0.33687 0.40478,0.33687 0.92604,0 z m 0.79375,-1.17501 c 0,-0.0642 -0.11906,-0.19026 -0.26458,-0.2802 -0.14552,-0.0899 -0.26458,-0.0374 -0.26458,0.11668 0,0.15411 0.11906,0.2802 0.26458,0.2802 0.14552,0 0.26458,-0.0525 0.26458,-0.11668 z m 3.22297,-4.97761 c 0.51768,-1.08558 0.90313,-2.81571 0.54502,-2.44634 -0.55872,0.5763 -1.62296,3.3073 -1.28881,3.3073 0.18328,0 0.51798,-0.38743 0.74379,-0.86096 z" />
</svg>
